<?xml version="1.0" encoding="utf-8"?>
<!-- Generator: Adobe Illustrator 27.4.0, SVG Export Plug-In . SVG Version: 6.00 Build 0)  -->
<svg version="1.1" id="레이어_1" xmlns="http://www.w3.org/2000/svg" xmlns:xlink="http://www.w3.org/1999/xlink" x="0px"
	 y="0px" viewBox="0 0 1000 1000" style="enable-background:new 0 0 1000 1000;" xml:space="preserve">
<style type="text/css">
	.st0{fill:#231815;}
</style>
<path class="st0" d="M974.5,927.61L769.91,723.02c65.77-75.45,105.73-173.95,105.73-281.67c0-236.72-192.58-429.3-429.3-429.3
	S17.04,204.63,17.04,441.35s192.59,429.31,429.31,429.31c102.76,0,197.17-36.33,271.15-96.77l205.36,205.36
	c7.13,7.13,16.48,10.7,25.82,10.7s18.69-3.57,25.82-10.7C988.77,964.99,988.77,941.87,974.5,927.61z M90.08,441.35
	c0-196.44,159.82-356.26,356.27-356.26c196.44,0,356.26,159.82,356.26,356.26c0,196.45-159.82,356.27-356.26,356.27
	C249.9,797.62,90.08,637.8,90.08,441.35z"/>
</svg>
