<?xml version="1.0" encoding="utf-8"?>
<!-- Generator: Adobe Illustrator 27.4.0, SVG Export Plug-In . SVG Version: 6.00 Build 0)  -->
<svg version="1.1" id="레이어_1" xmlns="http://www.w3.org/2000/svg" xmlns:xlink="http://www.w3.org/1999/xlink" x="0px"
	 y="0px" viewBox="0 0 1000 1000" style="enable-background:new 0 0 1000 1000;" xml:space="preserve">
<style type="text/css">
	.st0{display:none;fill:#231815;}
	.st1{display:none;}
	.st2{display:inline;fill:#231815;}
	.st3{fill:#231815;}
</style>
<path class="st0" d="M974.5,927.61L769.91,723.02c65.77-75.45,105.73-173.95,105.73-281.67c0-236.72-192.58-429.3-429.3-429.3
	S17.04,204.63,17.04,441.35s192.59,429.31,429.31,429.31c102.76,0,197.17-36.33,271.15-96.77l205.36,205.36
	c7.13,7.13,16.48,10.7,25.82,10.7s18.69-3.57,25.82-10.7C988.77,964.99,988.77,941.87,974.5,927.61z M90.08,441.35
	c0-196.44,159.82-356.26,356.27-356.26c196.44,0,356.26,159.82,356.26,356.26c0,196.45-159.82,356.27-356.26,356.27
	C249.9,797.62,90.08,637.8,90.08,441.35z"/>
<g class="st1">
	<path class="st2" d="M500.39,610.27c157.44,0,285.53-128.09,285.53-285.53S657.83,39.21,500.39,39.21S214.86,167.3,214.86,324.74
		S342.95,610.27,500.39,610.27z M500.39,107.37c119.85,0,217.37,97.51,217.37,217.37s-97.51,217.37-217.37,217.37
		s-217.37-97.51-217.37-217.37S380.54,107.37,500.39,107.37z"/>
	<path class="st2" d="M992.35,930.01C991,918.38,953.85,645.41,507,645.41C61.72,645.41,9.96,916.65,7.97,928.2
		c-3.18,18.45,9.15,35.88,27.59,39.19c18.41,3.28,36.1-8.99,39.55-27.39c1.74-9.25,46.92-226.42,431.89-226.42
		c383.32,0,416.46,215.46,417.65,224.36c2.03,17.35,16.75,30.12,33.81,30.11c1.32,0,2.66-0.07,4.01-0.23
		C981.17,965.63,994.54,948.7,992.35,930.01z"/>
</g>
<g class="st1">
	<path class="st2" d="M985.23,421.77L809.34,209.94c-6.07-7.3-15.07-11.53-24.56-11.53H682.21v-4.96
		c0-61.4-49.96-111.35-111.36-111.35H118.82c-61.4,0-111.35,49.95-111.35,111.35v368.81c0,61.4,49.94,111.35,111.35,111.35h452.03
		c24.93,0,47.89-8.33,66.47-22.22h323.35c17.63,0,31.92-14.29,31.92-31.92V442.16C992.59,434.71,989.98,427.5,985.23,421.77z
		 M618.38,562.26c0,26.2-21.32,47.52-47.53,47.52H118.82c-26.19,0-47.51-21.32-47.51-47.52V193.45c0-26.2,21.32-47.52,47.51-47.52
		h452.03c26.21,0,47.53,21.32,47.53,47.52V562.26z M928.75,587.56H679.2c1.9-8.14,3.01-16.58,3.01-25.3V262.24h87.58l158.96,191.44
		V587.56z"/>
	<path class="st2" d="M245.07,687.33c-65.57,0-118.91,53.35-118.91,118.92s53.35,118.92,118.91,118.92
		c65.58,0,118.93-53.35,118.93-118.92S310.64,687.33,245.07,687.33z M245.07,861.34c-30.37,0-55.08-24.71-55.08-55.09
		c0-30.38,24.71-55.09,55.08-55.09c30.38,0,55.09,24.71,55.09,55.09C300.16,836.62,275.45,861.34,245.07,861.34z"/>
	<path class="st2" d="M704.43,687.33c-65.57,0-118.91,53.35-118.91,118.92s53.35,118.92,118.91,118.92
		c65.58,0,118.93-53.35,118.93-118.92S770.01,687.33,704.43,687.33z M704.43,861.34c-30.37,0-55.08-24.71-55.08-55.09
		c0-30.38,24.71-55.09,55.08-55.09c30.38,0,55.09,24.71,55.09,55.09C759.52,836.62,734.81,861.34,704.43,861.34z"/>
</g>
<g class="st1">
	<path class="st2" d="M500.03,922.89l-13.01-6.2c-19.68-9.4-482.02-233.77-482.02-552.9c0-154.06,125.33-279.4,279.4-279.4
		c83.86,0,163,38.24,215.63,102.1c52.62-63.86,131.76-102.1,215.62-102.1c154.06,0,279.4,125.34,279.4,279.4
		c0,319.13-462.33,543.51-482.01,552.9L500.03,922.89z M284.4,144.77c-120.76,0-219,98.25-219,219.01
		c0,253.66,360.93,453.65,434.63,491.83c73.7-38.18,434.63-238.17,434.63-491.83c0-120.76-98.25-219.01-219-219.01
		c-77.75,0-150.36,41.99-189.49,109.59l-26.13,45.14l-26.13-45.14C434.76,186.76,362.16,144.77,284.4,144.77z"/>
</g>
<g>
	<path class="st3" d="M342.77,223.87c-17.07,0-30.9,13.83-30.9,30.9s13.83,30.9,30.9,30.9h586.59
		c-7.05,212.59-86.06,285.28-106.79,300.76H373.15c-75.05-100.38-88.03-175.41-100.58-248.06c-7.81-45.23-15.2-87.96-36.34-133.66
		c-42.08-90.96-151.99-91.36-204.14-78.88C15.52,129.8,5.32,146.4,9.23,162.98c3.91,16.57,20.54,26.84,37.13,22.99
		c4.18-0.95,102.48-22.96,133.79,44.7c17.72,38.3,24.12,75.34,31.53,118.23c13.68,79.13,29.17,168.83,121.86,287.45l9.27,11.88
		h496.3l6.61-3.38c5.96-3.04,145.94-78.11,145.94-390.08v-30.9H342.77z"/>
	<path class="st3" d="M469.05,681.19c-56.79,0-103,46.2-103,103c0,56.8,46.2,103,103,103s103-46.2,103-103
		C572.04,727.39,525.84,681.19,469.05,681.19z M469.05,825.39c-22.72,0-41.2-18.49-41.2-41.2c0-22.72,18.48-41.2,41.2-41.2
		c22.72,0,41.2,18.49,41.2,41.2C510.24,806.91,491.77,825.39,469.05,825.39z"/>
	<path class="st3" d="M750.33,681.19c-56.8,0-103.01,46.2-103.01,103c0,56.8,46.2,103,103.01,103c56.79,0,103-46.2,103-103
		C853.33,727.39,807.12,681.19,750.33,681.19z M750.33,825.39c-22.72,0-41.21-18.49-41.21-41.2c0-22.72,18.49-41.2,41.21-41.2
		c22.72,0,41.2,18.49,41.2,41.2C791.53,806.91,773.05,825.39,750.33,825.39z"/>
</g>
</svg>
